<?xml version="1.0" encoding="UTF-8" standalone="no"?>
<!-- Created with Inkscape (http://www.inkscape.org/) -->

<svg
   xmlns:dc="http://purl.org/dc/elements/1.1/"
   xmlns:cc="http://creativecommons.org/ns#"
   xmlns:rdf="http://www.w3.org/1999/02/22-rdf-syntax-ns#"
   xmlns:svg="http://www.w3.org/2000/svg"
   xmlns="http://www.w3.org/2000/svg"
   xmlns:sodipodi="http://sodipodi.sourceforge.net/DTD/sodipodi-0.dtd"
   xmlns:inkscape="http://www.inkscape.org/namespaces/inkscape"
   version="1.1"
   id="svg3767"
   width="992"
   height="992"
   viewBox="0 0 992 992"
   sodipodi:docname="Arena_ws22.svg"
   inkscape:version="0.92.5 (2060ec1f9f, 2020-04-08)">
  <metadata
     id="metadata3773">
    <rdf:RDF>
      <cc:Work
         rdf:about="">
        <dc:format>image/svg+xml</dc:format>
        <dc:type
           rdf:resource="http://purl.org/dc/dcmitype/StillImage" />
        <dc:title></dc:title>
      </cc:Work>
    </rdf:RDF>
  </metadata>
  <defs
     id="defs3771" />
  <sodipodi:namedview
     pagecolor="#ffffff"
     bordercolor="#666666"
     borderopacity="1"
     objecttolerance="10"
     gridtolerance="10"
     guidetolerance="10"
     inkscape:pageopacity="0"
     inkscape:pageshadow="2"
     inkscape:window-width="1842"
     inkscape:window-height="1016"
     id="namedview3769"
     showgrid="false"
     inkscape:zoom="0.84475806"
     inkscape:cx="496"
     inkscape:cy="638.05251"
     inkscape:window-x="78"
     inkscape:window-y="27"
     inkscape:window-maximized="1"
     inkscape:current-layer="svg3767" />
  <path
     style="fill:#000000"
     d="m 425,756.5 c 0,-0.825 0.675,-1.5 1.5,-1.5 0.825,0 1.5,0.675 1.5,1.5 0,0.825 -0.675,1.5 -1.5,1.5 -0.825,0 -1.5,-0.675 -1.5,-1.5 z m 2.28975,-4.5 c 0.4537,-1.73497 0.0307,-2 -3.19224,-2 -2.04339,0 -4.58876,-0.66069 -5.65638,-1.4682 -1.06762,-0.8075 -2.54666,-1.4825 -3.28676,-1.5 -0.7401,-0.0175 -2.621,-0.93995 -4.17979,-2.0499 -2.04008,-1.45267 -3.03722,-1.68956 -3.55888,-0.84549 -0.45301,0.73297 -0.29187,0.90509 0.42979,0.45908 0.63498,-0.39244 1.15451,-0.23697 1.15451,0.34549 0,1.86007 -2.74713,1.13399 -3.26967,-0.86419 -0.67636,-2.58641 -8.96169,-6.30781 -12.22192,-5.48954 -1.83559,0.4607 -2.50841,0.23069 -2.50841,-0.85752 0,-0.8179 -1.4625,-2.03163 -3.25,-2.69718 -1.7875,-0.66556 -4.375,-1.79319 -5.75,-2.50586 -1.375,-0.71267 -3.9625,-1.60848 -5.75,-1.99068 C 374.4625,730.1538 373,729.42684 373,728.92054 373,728.41425 372.51786,728 371.92857,728 370.54409,728 368,725.45591 368,724.07143 368,723.48214 368.87344,723 369.94098,723 c 2.35577,0 3.53529,-1.58762 1.92082,-2.58541 -0.73122,-0.45192 -0.90292,-0.29014 -0.45729,0.4309 0.39244,0.63498 0.28945,1.15451 -0.22886,1.15451 -0.51831,0 -1.21373,-1.0125 -1.54536,-2.25 -0.88679,-3.30903 -0.78452,-3.75 0.86971,-3.75 0.825,0 1.5,0.64844 1.5,1.44098 0,2.30284 1.49702,2.59407 2.77937,0.5407 0.87478,-1.40075 0.88658,-2.0701 0.0456,-2.58983 -0.6953,-0.42972 -0.85798,-0.25422 -0.4205,0.45364 C 374.79695,716.48047 374.64148,717 374.05902,717 373.47656,717 373,715.65 373,714 c 0,-1.65 0.45,-3 1,-3 0.55,0 1,-0.675 1,-1.5 0,-1.80988 2.67759,-2.01391 3.28088,-0.25 0.23513,0.6875 0.25708,0.22762 0.0488,-1.02196 -0.23076,-1.38417 0.21697,-2.50056 1.1458,-2.85699 C 380.31395,705.04929 381,703.93417 381,702.89301 381,701.85186 381.40787,701 381.90638,701 c 1.92415,0 -0.1628,-3.61062 -3.0421,-5.26311 C 375.15318,693.60701 374,693.55085 374,695.5 c 0,0.825 -0.675,1.5 -1.5,1.5 -1.80872,0 -2.01761,-3.62447 -0.25,-4.33772 0.73134,-0.2951 0.50652,-0.53714 -0.54181,-0.58333 -0.9855,-0.0434 -2.70891,-0.93336 -3.82981,-1.97763 -1.66937,-1.55526 -7.98183,-3.87144 -6.49271,-2.38232 0.67984,0.67984 -2.33347,10.43288 -4.05471,13.12372 -0.82422,1.2885 -1.64682,3.93781 -1.82801,5.88737 -0.18119,1.94955 -0.93098,3.9465 -1.6662,4.43765 -0.85468,0.57097 -0.34502,0.66265 1.41325,0.25423 2.12493,-0.49359 2.75,-0.2732 2.75,0.96962 0,0.88463 -0.40787,1.60841 -0.90638,1.60841 -0.49851,0 -0.65244,0.97107 -0.34207,2.15793 0.47602,1.82031 0.22669,2.06964 -1.59362,1.59362 C 353.97107,717.44118 353,717.59511 353,718.09362 353,718.59213 352.325,719 351.5,719 c -0.825,0 -1.5,-0.63287 -1.5,-1.40638 0,-0.93251 -0.70151,-1.22293 -2.08198,-0.86193 -1.15903,0.30309 -3.708,-0.35095 -5.75,-1.47541 -2.01741,-1.11092 -6.59302,-3.00259 -10.16802,-4.2037 -7.74901,-2.60349 -9.10693,-3.13522 -15.10953,-5.91666 C 314.35523,703.96117 311.80523,703 311.2238,703 c -0.58142,0 -1.20713,-0.3375 -1.39047,-0.75 -0.51898,-1.16771 -7.67515,-4.25 -9.86726,-4.25 -1.08134,0 -1.96992,-0.3375 -1.97462,-0.75 -0.005,-0.4125 -2.8172,-1.61863 -6.25,-2.68028 -3.4328,-1.06166 -8.46071,-2.95018 -11.17315,-4.19672 -2.71243,-1.24654 -5.32709,-2.02207 -5.81036,-1.7234 -0.48326,0.29867 -2.19049,-3.4e-4 -3.79384,-0.66447 -2.14911,-0.89019 -3.08226,-2.09806 -3.55094,-4.59632 C 267.0635,681.52496 266.20498,680 265.50534,680 c -0.69964,0 -1.54342,-1.0125 -1.87505,-2.25 -0.88679,-3.30903 -0.78452,-3.75 0.86971,-3.75 0.825,0 1.5,0.675 1.5,1.5 0,0.825 0.43588,1.5 0.96862,1.5 0.53273,0 0.71403,-0.66344 0.40287,-1.4743 -0.31116,-0.81087 0.12082,-2.16087 0.95995,-3 1.79464,-1.79463 3.09692,-2.02781 2.07307,-0.37119 -0.44563,0.72104 -0.27393,0.88282 0.45729,0.4309 0.64395,-0.39798 0.91978,-1.1298 0.61295,-1.62626 -0.30683,-0.49646 0.19261,-2.04803 1.10986,-3.44794 1.5193,-2.31874 1.523,-2.48973 0.0416,-1.92125 C 271.51441,666.01658 271,665.6718 271,664.5 c 0,-1.08592 0.53099,-1.51022 1.44907,-1.15792 1.02007,0.39144 1.26473,0.0757 0.82639,-1.06662 -0.46048,-1.2 -0.2,-1.46048 1,-1 1.11153,0.42654 1.45697,0.19083 1.09661,-0.74825 -0.57152,-1.48936 1.26738,-5.59895 3.01191,-6.73102 0.59652,-0.3871 1.03684,-2.5246 0.97848,-4.75 -0.0584,-2.2254 0.26801,-4.04619 0.72526,-4.04619 1.65915,0 5.65731,-5.25899 5.23267,-6.88281 -0.23965,-0.91644 0.26245,-3.00522 1.11578,-4.64172 0.85333,-1.63651 1.55428,-3.80334 1.55767,-4.81518 0.003,-1.01184 1.01866,-2.6994 2.25616,-3.75015 2.09023,-1.77478 2.12574,-1.98496 0.5,-2.95998 C 288.23097,620.4394 288.5969,619 291.5,619 c 1.4921,0 2.5,-0.57207 2.5,-1.41896 0,-0.78043 0.62781,-2.69293 1.39512,-4.25 3.2824,-6.66077 7.87414,-19.22401 8.80139,-24.08104 0.55125,-2.8875 1.36542,-5.25 1.80926,-5.25 0.44385,0 0.57164,-0.9 0.28398,-2 -0.28766,-1.1 -0.0563,-2 0.51416,-2 0.57045,0 1.35221,-1.43432 1.73724,-3.18737 0.38504,-1.75305 1.65829,-4.03197 2.82946,-5.06425 1.49201,-1.31509 1.75524,-2.03226 0.87939,-2.39597 -0.6875,-0.28549 -1.25,-1.20906 -1.25,-2.05237 0,-1.10208 0.63278,-1.36372 2.25,-0.93033 1.2375,0.33164 2.78261,0.60913 3.43358,0.61664 0.65097,0.008 1.32597,1.25115 1.5,2.76365 0.25613,2.22599 0.88807,2.81358 3.31642,3.08366 1.65,0.18352 3.80687,1.05829 4.79303,1.94394 1.65409,1.48548 1.74266,1.47899 1.14302,-0.0837 -0.94529,-2.46338 2.22761,-2.1909 3.56395,0.30607 0.5887,1.1 1.63439,2 2.32374,2 0.68936,0 3.01867,0.9 5.17626,2 2.15759,1.1 4.27946,2 4.71528,2 0.43582,0 1.334,-2.025 1.99596,-4.5 0.66196,-2.475 1.56024,-4.5 1.99616,-4.5 0.43593,0 0.7926,-0.71803 0.7926,-1.59563 0,-0.8776 0.90815,-2.871 2.0181,-4.42979 1.45267,-2.04008 1.68956,-3.03722 0.84549,-3.55888 -0.73297,-0.45301 -0.90509,-0.29187 -0.45908,0.42979 0.39244,0.63498 0.48314,1.15451 0.20156,1.15451 -1.17427,0 -6.16212,-2.53714 -6.84076,-3.47965 -0.46584,-0.64698 -0.74029,-0.56294 -0.75,0.22965 -0.008,0.6875 -0.69031,1.25 -1.51531,1.25 -1.00185,0 -1.53852,-1.07933 -1.616,-3.25 -0.0638,-1.7875 -0.3218,-2.4625 -0.57333,-1.5 -0.57449,2.19838 -5.31067,2.42134 -5.31067,0.25 0,-0.825 0.70156,-1.5 1.55902,-1.5 2.81236,0 0.5455,-1.75614 -3.29797,-2.55495 -2.06858,-0.42993 -4.09064,-0.70858 -4.49347,-0.61923 -1.13419,0.25157 -2.05201,-4.53958 -1.45373,-7.58862 0.8274,-4.21666 3.09682,-10.2372 3.85888,-10.2372 0.37585,0 0.99259,-2.475 1.37054,-5.5 0.55951,-4.47819 1.03734,-5.5 2.57195,-5.5 1.33161,0 1.88478,-0.71641 1.88478,-2.44098 0,-1.34254 0.45,-2.7191 1,-3.05902 0.55,-0.33992 1.00251,-1.37898 1.00558,-2.30902 0.0118,-3.59089 2.15052,-9.19098 3.51004,-9.19098 0.8538,0 1.19135,-0.60006 0.84511,-1.50234 -0.33586,-0.87522 0.37115,-2.26972 1.69371,-3.34066 1.74851,-1.41586 1.9676,-2.02534 0.95338,-2.65217 -0.9341,-0.57731 -1.07893,-0.4289 -0.49828,0.5106 0.60203,0.97412 0.35676,1.14724 -0.92728,0.65451 C 342.62205,500.30147 341.64823,500 341.41821,500 c -0.93648,0 -0.26548,-3.61741 0.97384,-5.25 2.04609,-2.69539 3.60795,-2.08212 3.60795,1.41667 0,4.21074 1.11073,2.98326 1.18898,-1.31397 0.0336,-1.84398 0.91129,-4.28861 1.95046,-5.43251 C 350.50665,487.91521 356,470.3541 356,467.48841 c 0,-0.14033 0.83295,-0.47297 1.85099,-0.73919 1.26784,-0.33155 2.05918,-1.786 2.51182,-4.61663 0.36345,-2.27293 1.13583,-4.13259 1.7164,-4.13259 0.59372,0 0.78307,-0.85854 0.43278,-1.96223 -0.66891,-2.10755 0.98308,-6.0653 3.04099,-7.28541 0.69356,-0.41121 1.04161,-1.58665 0.77345,-2.6121 -0.27339,-1.04544 0.12102,-2.09799 0.89787,-2.39609 0.76199,-0.2924 1.98491,-2.49196 2.7176,-4.88791 0.73268,-2.39594 3.07049,-7.97306 5.19513,-12.3936 2.12463,-4.42053 3.86297,-8.80803 3.86297,-9.75 0,-1.04599 0.77851,-1.71266 2,-1.71266 2.48942,0 2.49191,0.69751 0.022,6.1408 -1.08792,2.39756 -1.98792,5.33956 -2,6.53777 -0.0121,1.19822 -0.72451,2.88112 -1.58317,3.73979 -0.85867,0.85866 -1.81932,3.15173 -2.13479,5.09571 -0.31546,1.94397 -0.96291,3.77513 -1.43878,4.06923 C 373.38935,440.8774 373,442.18992 373,443.5 c 0,1.31008 -0.45,2.66008 -1,3 -0.55,0.33992 -1,1.49148 -1,2.55902 0,1.06754 -0.34522,1.94098 -0.76716,1.94098 -0.42193,0 -2.02926,3.7125 -3.57184,8.25 -1.54258,4.5375 -3.22957,9.04294 -3.74887,10.01208 -0.51929,0.96915 -0.66318,2.88165 -0.31974,4.25 0.46558,1.85502 0.22717,2.48792 -0.93719,2.48792 -1.63518,0 -4.85399,6.31082 -6.68272,13.10219 -0.57726,2.14379 -1.36972,3.89983 -1.76102,3.90229 -0.3913,0.002 -0.79833,1.6687 -0.9045,3.70274 -0.11686,2.23889 -0.94178,4.30881 -2.09047,5.24551 -1.89803,1.54776 -5.35334,8.33972 -6.63761,13.04727 -0.64749,2.37341 -3.22756,8.93452 -6.09517,15.5 -0.72068,1.65 -1.57066,4.50037 -1.88885,6.33416 -0.31819,1.83378 -1.52055,4.65712 -2.67192,6.27407 l -2.09341,2.93991 6.33524,2.83304 c 3.48438,1.55817 9.62651,4.13484 13.64918,5.72593 l 7.31394,2.89289 -0.61561,4 c -0.33858,2.2 -1.71736,5.88013 -3.06394,8.17807 -1.34659,2.29794 -2.44834,5.11938 -2.44834,6.26987 0,2.61272 -4.54288,9.93942 -6.66868,10.75516 -1.67355,0.6422 -6.24967,-0.7306 -12.76915,-3.83064 C 330.39636,581.84261 327.80276,581 326.7986,581 c -1.824,0 -2.56554,-0.29375 -8.40828,-3.33086 C 315.0416,575.92845 314,576.28374 314,579.16667 314,580.175 313.65208,581 313.22684,581 c -0.42523,0 -1.81799,3.2625 -3.09501,7.25 -1.27703,3.9875 -2.95411,8.72777 -3.72685,10.53393 -0.77274,1.80616 -1.42025,4.05616 -1.43891,5 -0.0187,0.94384 -0.90339,3.51607 -1.96607,5.71607 -1.06268,2.2 -1.94741,4.59169 -1.96607,5.31488 -0.0187,0.72318 -2.05893,5.15388 -4.53393,9.846 -2.475,4.69212 -4.5,9.36137 -4.5,10.37611 0,1.01473 -0.45,2.12309 -1,2.46301 -0.55,0.33992 -1,1.31097 -1,2.15789 0,0.84692 -0.63255,2.95786 -1.40566,4.69098 -0.77311,1.73312 -2.19749,5.40113 -3.16528,8.15113 -0.9678,2.75 -2.13525,5.4275 -2.59434,5.95 -0.4591,0.5225 -0.84999,1.6475 -0.86865,2.5 -0.0187,0.8525 -0.90339,3.35 -1.96607,5.55 -1.06268,2.2 -1.94741,5.1081 -1.96607,6.46244 -0.0199,1.44053 -1.14036,3.34467 -2.70004,4.58832 -1.83945,1.46672 -2.29686,2.35409 -1.47523,2.86189 0.69459,0.42928 1.07638,0.23619 0.91612,-0.46332 -0.15113,-0.65963 0.35123,-1.42675 1.11635,-1.70471 1.03815,-0.37714 1.2363,0.11152 0.78093,1.92587 -0.54992,2.19103 -0.17589,2.5474 3.78558,3.60694 2.41768,0.64663 10.16626,3.83263 17.21907,7.08 7.05281,3.24737 13.94829,6.23549 15.32329,6.64026 1.375,0.40476 6.55,2.42497 11.5,4.48935 12.69359,5.29381 19.93988,7.37036 23.02097,6.59705 2.30318,-0.57806 2.54264,-1.018 1.97091,-3.62105 C 348.98494,702.65495 349.19021,702 350.42054,702 351.45986,702 352,701.09967 352,699.3673 c 0,-1.44799 0.80305,-3.36049 1.78455,-4.25 0.9815,-0.88952 2.47809,-3.8673 3.32577,-6.6173 1.41832,-4.6013 1.77439,-4.98344 4.46545,-4.7923 4.28875,0.30462 13.42423,3.32436 13.42423,4.43739 0,0.52742 1.35,1.42956 3,2.00475 1.65,0.5752 3,1.45179 3,1.94799 0,0.49619 1.2949,0.90217 2.87756,0.90217 5.53661,0 5.79173,2.05754 1.51859,12.24765 -2.12747,5.07336 -3.73365,10.0181 -3.56928,10.98832 0.16436,0.97022 -0.21158,1.76403 -0.83544,1.76403 -1.71981,0 -3.81702,2.45691 -4.53331,5.31084 -0.60699,2.41845 -0.2858,2.66202 6.1189,4.64023 5.99923,1.85298 16.16479,5.83658 20.4558,8.01607 0.84306,0.4282 2.94296,1.08827 4.66646,1.46681 1.7235,0.37855 3.35989,1.27786 3.63642,1.99848 0.27652,0.72062 1.77662,1.62782 3.33354,2.01601 1.55692,0.38818 4.18076,1.30387 5.83076,2.03485 1.65,0.73099 4.29186,1.6185 5.8708,1.97226 1.57894,0.35375 3.52358,1.29597 4.32143,2.09382 0.79784,0.79785 2.31848,1.45063 3.3792,1.45063 3.41135,0 2.09132,2.86079 -1.82143,3.94742 -5.1368,1.42656 -5.55993,1.34574 -4.96025,-0.94742 z M 293,691 c 0,-0.55 -0.47656,-1 -1.05902,-1 -0.58246,0 -0.7809,0.45 -0.44098,1 0.33992,0.55 0.81648,1 1.05902,1 0.24254,0 0.44098,-0.45 0.44098,-1 z m -5,-2.05902 C 288,688.42344 287.625,688 287.16667,688 c -0.45834,0 -0.83334,0.65521 -0.83334,1.45601 0,0.80081 0.375,1.22425 0.83334,0.94098 C 287.625,690.11373 288,689.45852 288,688.94098 Z m -12.87591,-19.20765 c -0.98762,-0.98026 -1.10248,-0.8654 -0.5598,0.5598 0.37553,0.98622 0.93469,1.54122 1.24258,1.23333 0.30789,-0.30789 6.4e-4,-1.11479 -0.68278,-1.79313 z M 336.5,581 c -0.33992,-0.55 -1.15398,-0.99311 -1.80902,-0.98469 -0.71561,0.009 -0.59227,0.40223 0.30902,0.98469 1.92112,1.24153 2.2673,1.24153 1.5,0 z M 324,576.61663 c 0,-0.21085 -0.90062,-0.61888 -2.00138,-0.90674 -1.10076,-0.28785 -1.7492,-0.11534 -1.44098,0.38337 0.53825,0.87091 3.44236,1.31244 3.44236,0.52337 z m 13.72917,-19.2208 c -0.33229,-0.33229 -1.1948,-0.36781 -1.91667,-0.0789 -0.79773,0.31922 -0.56078,0.55618 0.60417,0.60416 1.05416,0.0434 1.64479,-0.19293 1.3125,-0.52522 z m -1.8125,-5.76038 c -0.22917,-0.2005 -1.54167,-0.90032 -2.91667,-1.55516 -2.35727,-1.12265 -2.38918,-1.10183 -0.55887,0.36454 1.593,1.27626 4.84786,2.39128 3.47554,1.19062 z m -1.64903,-17.71998 c -0.40408,-1.54521 -0.75429,-1.74609 -1.35359,-0.7764 -0.6316,1.02194 0.40482,2.71465 1.74233,2.84562 0.086,0.008 -0.0889,-0.92273 -0.38874,-2.06922 z M 431.25,746.33772 C 429.48239,745.62447 429.69128,742 431.5,742 c 0.93333,0 1.5,0.94444 1.5,2.5 0,1.375 -0.1125,2.46447 -0.25,2.42105 -0.1375,-0.0434 -0.8125,-0.30592 -1.5,-0.58333 z m 34.0729,-4.93864 c -0.33788,-0.88051 -0.051,-1.94908 0.6375,-2.3746 0.6981,-0.43145 -0.64001,-0.72407 -3.02511,-0.66153 -2.59725,0.0681 -4.43893,-0.37388 -4.68944,-1.1254 C 458.00107,736.50322 456.03741,736 453.41667,736 450.9875,736 449,735.55 449,735 c 0,-0.55 -0.9,-1 -2,-1 -1.1,0 -2,-0.45 -2,-1 0,-0.55 -0.675,-1 -1.5,-1 -0.825,0 -1.5,0.45 -1.5,1 0,0.55 -0.675,1 -1.5,1 -0.825,0 -1.5,0.45 -1.5,1 0,0.55 -0.675,1 -1.5,1 -0.825,0 -1.5,0.6199 -1.5,1.37756 0,0.75765 -0.66968,1.93333 -1.48817,2.61262 -1.20512,1.00016 -1.60575,0.92864 -2.10641,-0.37605 -0.66849,-1.74206 3.22267,-6.56728 5.31983,-6.59685 0.90146,-0.0127 0.96752,-0.69514 0.25,-2.58238 -1.35771,-3.57105 -1.21706,-5.4349 0.41014,-5.4349 1.7749,0 20.1687,6.68789 24.11461,8.76795 1.65,0.86978 3.31303,2.05228 3.69563,2.62778 0.38259,0.57549 0.87544,0.83438 1.09522,0.57531 0.83804,-0.98786 7.57458,-17.71844 9.24925,-22.97104 0.96446,-3.025 3.26248,-8.47745 5.10673,-12.11656 1.84424,-3.6391 3.35317,-7.4866 3.35317,-8.55 0,-1.06339 0.51107,-2.44451 1.13571,-3.06915 0.84762,-0.84762 0.74401,-1.52743 -0.40846,-2.6799 -1.23298,-1.23297 -2.15475,-1.33133 -4.57387,-0.48802 -2.38824,0.83255 -3.77003,0.70484 -6.52649,-0.60318 -3.00087,-1.42401 -3.64992,-2.37332 -4.57648,-6.69374 -0.87883,-4.09785 -0.79711,-5.60083 0.43929,-8.07925 0.83543,-1.67468 1.40452,-3.13558 1.26464,-3.24645 -0.13989,-0.11087 -4.07934,-1.44887 -8.75434,-2.97333 -12.69207,-4.13871 -20.70085,-7.98251 -21.43203,-10.28627 -0.34978,-1.10206 0.0243,-3.73858 0.83122,-5.85895 4.28768,-11.26638 12.43417,-34.21783 12.99688,-36.61665 0.52946,-2.25705 0.2328,-2.93371 -1.62414,-3.70453 -1.24956,-0.5187 -7.57807,-3.00205 -14.06336,-5.51855 -10.58403,-4.10696 -11.94809,-4.4188 -13.32143,-3.04547 -2.49093,2.49094 -4.38714,1.87292 -4.38714,-1.42986 0,-2.58676 -0.50421,-3.11092 -4,-4.15829 -2.2,-0.65913 -4,-1.5772 -4,-2.04014 C 414,592.37877 412.875,592 411.5,592 410.125,592 409,591.60541 409,591.12314 409,589.97835 399.73164,586 397.06462,586 395.92908,586 395,585.57039 395,585.04531 c 0,-0.52507 -1.6875,-1.22466 -3.75,-1.55463 -2.0625,-0.32997 -4.53139,-1.02536 -5.48643,-1.54531 C 383.10305,580.4969 382,580.80599 382,583 c 0,1.1 -0.45,2 -1,2 -0.55,0 -1,0.9 -1,2 0,1.1 -0.38834,2 -0.86298,2 -1.5039,0 -9.63038,17.60875 -13.43398,29.10921 -0.41378,1.25109 2.39747,2.9785 12.63237,7.76215 7.24053,3.38412 13.62701,6.14747 14.19219,6.14079 0.56518,-0.007 2.54831,-4.17465 4.40696,-9.26215 1.85865,-5.0875 3.69541,-9.7 4.08169,-10.25 0.38628,-0.55 0.95231,-2.35 1.25785,-4 0.48388,-2.61311 0.14738,-3.20445 -2.60929,-4.58529 C 395.74054,601.949 394.70561,598 398.11472,598 c 1.23961,0 4.24446,0.96365 6.67745,2.14144 4.10714,1.98823 4.38661,2.36945 3.90641,5.32859 -0.28447,1.75294 -2.37765,7.12165 -4.65153,11.93047 -2.27388,4.80882 -4.49207,10.65825 -4.92932,12.99872 -0.86205,4.61431 -0.40635,5.07272 7.54236,7.58719 9.01428,2.85155 21.75756,8.0665 22.47462,9.19732 1.36127,2.14673 1.04641,3.68232 -3.64959,17.79942 C 423.0183,672.39888 421,678.98097 421,679.61 c 0,1.29267 7.24916,4.60547 14,6.39787 2.475,0.65714 4.95,1.48305 5.5,1.83536 0.55,0.35232 2.43794,1.14525 4.19543,1.76207 2.55384,0.89633 3.30047,0.84776 3.71861,-0.2419 0.28776,-0.74987 1.39981,-1.3634 2.47124,-1.3634 1.64214,0 1.94805,0.70667 1.94805,4.5 0,3.04269 -0.42413,4.5 -1.30967,4.5 -0.72033,0 -1.5687,0.675 -1.88529,1.5 -0.96682,2.5195 -3.63837,1.77335 -3.63837,-1.01618 0,-3.15004 -2.72839,-4.52658 -17.49437,-8.82635 -15.44132,-4.49642 -15.37795,-4.3394 -9.14584,-22.66001 l 4.80359,-14.12117 -2.18434,-1.89447 c -1.20139,-1.04196 -3.82565,-2.3978 -5.83169,-3.01298 -3.2747,-1.00423 -11.30236,-3.86795 -16.64735,-5.93863 -1.1,-0.42614 -4.67405,-2.01352 -7.94233,-3.52751 -3.26829,-1.51398 -7.08481,-2.7527 -8.48116,-2.7527 -1.39636,0 -2.99731,-0.56227 -3.55767,-1.24948 C 378.33815,632.05254 365.28804,627 362.72879,627 c -0.95084,0 -1.75925,-0.5625 -1.79647,-1.25 -0.0834,-1.54093 -0.7122,-0.0961 -5.98377,13.75 -2.30339,6.05 -4.94355,12.125 -5.86702,13.5 -0.92347,1.375 -2.22836,3.77791 -2.89976,5.33979 C 344.09834,663.18654 338.59584,671 337.26602,671 c -2.12985,0 -1.41785,-4.52648 1.67738,-10.66377 1.61887,-3.20992 4.11519,-8.53623 5.54736,-11.83623 1.43218,-3.3 3.65886,-7.575 4.94818,-9.5 1.28932,-1.925 2.63569,-5.17303 2.99192,-7.21785 0.35624,-2.04482 1.24566,-4.31581 1.97649,-5.04664 0.73083,-0.73084 1.63369,-2.28945 2.00634,-3.46358 0.72745,-2.29197 1.0754,-2.07732 -12.91369,-7.96636 -3.3,-1.38921 -7.35,-3.10314 -9,-3.80873 -1.65,-0.70559 -4.575,-1.87452 -6.5,-2.59763 -6.49872,-2.4412 -7.8383,-5.33654 -2.96431,-6.40705 2.29733,-0.50458 4.63383,0.10403 9.60632,2.50222 3.61386,1.74293 10.79486,4.69806 15.95778,6.56696 l 9.38712,3.398 2.34054,-4.72967 c 1.2873,-2.60132 3.6005,-7.87967 5.14046,-11.72967 1.53996,-3.85 3.63966,-8.9076 4.66601,-11.2391 1.02634,-2.33151 1.86608,-4.54722 1.86608,-4.9238 0,-0.37658 1.75158,-4.31899 3.8924,-8.7609 5.33208,-11.06332 7.1076,-15.18286 7.1076,-16.4909 0,-0.61184 0.39506,-1.89383 0.87792,-2.84887 1.63555,-3.23495 4.12208,-9.30021 4.12208,-10.05475 0,-0.41276 -1.35,-1.54793 -3,-2.52261 -1.65,-0.97468 -3,-2.46125 -3,-3.3035 0,-1.22328 0.77651,-1.40018 3.8597,-0.87927 3.80324,0.64255 3.891,0.58549 6,-3.90121 1.17716,-2.50431 2.1403,-5.4582 2.1403,-6.56419 0,-1.106 0.3884,-2.0109 0.86311,-2.0109 0.47471,0 1.65756,-2.5875 2.62855,-5.75 0.97099,-3.1625 2.15759,-6.1775 2.63689,-6.7 0.4793,-0.5225 0.87145,-1.48004 0.87145,-2.12788 0,-0.64783 0.74031,-2.92033 1.64514,-5.05 2.98231,-7.01939 2.48853,-8.93933 -2.90468,-11.29406 C 399.12272,492.93513 396.34054,492 395.55785,492 c -1.71253,0 -2.84743,-3.0818 -1.97354,-5.35912 C 394.37283,484.58604 398,484.47031 398,486.5 c 0,0.825 0.65927,1.5 1.46505,1.5 2.37677,0 10.92342,3.07874 12.35831,4.45181 1.09298,1.04589 0.61424,3.43175 -2.75,13.70494 C 406.83301,512.99798 405,519.5864 405,520.79768 405,522.00895 404.55857,523 404.01905,523 c -0.53952,0 -1.29042,1.23304 -1.66867,2.7401 -0.37824,1.50705 -1.25497,3.30735 -1.94828,4.00066 -1.79303,1.79303 -4.60778,12.03583 -3.91088,14.23158 0.37396,1.17823 -0.33027,2.82997 -1.9532,4.58114 -1.39591,1.50621 -2.53802,3.5463 -2.53802,4.53353 0,0.98722 -0.39899,2.04154 -0.88664,2.34293 -0.48765,0.30138 -1.16508,2.01544 -1.5054,3.80901 -0.34033,1.79358 -1.34549,4.61105 -2.23371,6.26105 -0.88821,1.65 -1.9641,4.46564 -2.39086,6.25698 -0.70704,2.96787 -0.54101,3.31452 1.87035,3.90513 1.45544,0.35647 7.59626,2.99207 13.64626,5.85688 6.05,2.86481 12.8,5.81313 15,6.55182 2.2,0.73869 4.81267,2.01748 5.80594,2.84175 1.45113,1.20422 2.18522,1.2618 3.73643,0.29305 2.70281,-1.68793 3.72612,-1.51041 4.45055,0.77209 0.68102,2.14571 11.91882,8.0223 15.34103,8.0223 1.12641,0 2.3001,0.40788 2.6082,0.9064 0.3081,0.49851 2.50947,1.57058 4.89193,2.38237 4.04873,1.37953 4.40856,1.35298 5.50731,-0.4064 0.64656,-1.0353 2.07174,-1.88237 3.16708,-1.88237 2.39044,0 2.6004,2.48527 0.60961,7.21607 -1.73172,4.11518 -4.10458,11.83448 -5.54639,18.04332 -0.60787,2.61766 -2.2631,7.34266 -3.6783,10.5 C 450.41804,641.16644 446,653.37166 446,654.4217 c 0,0.0886 3.9375,1.4507 8.75,3.02681 4.8125,1.57612 9.65,3.24556 10.75,3.70989 5.03067,2.1235 12.13006,3.72157 14.21183,3.19908 C 481.06522,664.0178 482,664.236 482,664.89159 c 0,0.60963 1.17748,1.10841 2.61663,1.10841 2.1243,0 2.51823,0.37631 2.09362,2 -0.38433,1.46967 -0.0307,2 1.33368,2 1.02118,0 2.262,0.72426 2.75739,1.60946 0.80599,1.44023 0.97495,1.41595 1.60692,-0.23093 0.39589,-1.03168 0.24165,-1.99523 -0.35101,-2.19279 C 490.43499,668.645 490.8026,666 492.5,666 c 0.825,0 1.5,0.39317 1.5,0.8737 0,1.3981 6.22992,-0.26691 7.09115,-1.89518 2.25267,-4.25896 3.90885,-8.46964 3.90885,-9.93788 0,-0.90864 1.125,-3.17693 2.5,-5.04064 1.375,-1.86371 2.5,-3.779 2.5,-4.25621 0,-0.4772 1.06346,-3.20227 2.36325,-6.05572 1.29979,-2.85344 3.38597,-7.43807 4.63596,-10.18807 1.25,-2.75 3.84488,-8.375 5.76642,-12.5 1.92153,-4.125 5.20213,-12 7.29023,-17.5 2.08809,-5.5 6.3348,-15.625 9.43715,-22.5 3.10234,-6.875 6.24436,-13.85 6.98226,-15.5 0.73791,-1.65 3.00965,-7.5 5.04832,-13 2.03867,-5.5 4.05412,-10.45 4.47878,-11 0.42466,-0.55 1.98025,-4.15 3.45687,-8 1.47661,-3.85 3.06476,-7.9 3.52922,-9 0.46446,-1.1 1.364,-4.25 1.99898,-7 0.63497,-2.75 3.4123,-11.03304 6.17184,-18.40676 2.75953,-7.37372 5.27613,-15.00151 5.59243,-16.95066 0.31631,-1.94914 1.17379,-4.6911 1.90553,-6.09323 0.73174,-1.40214 1.33321,-3.56185 1.3366,-4.79935 0.003,-1.2375 0.45616,-2.25 1.00616,-2.25 0.55,0 1,-0.8625 1,-1.91667 0,-1.05416 0.5625,-2.18415 1.25,-2.51108 0.6875,-0.32694 0.125,-0.30497 -1.25,0.0488 -1.375,0.35378 -3.71458,0.64951 -5.19907,0.65718 -1.48449,0.008 -2.93287,0.62321 -3.21862,1.36786 -0.3491,0.90974 -2.31036,1.3539 -5.97835,1.3539 -4.75585,0 -5.73565,-0.35196 -7.60873,-2.7332 -1.8168,-2.30967 -2.09613,-3.76883 -1.80274,-9.41677 0.19096,-3.67597 7.7e-4,-6.46947 -0.42264,-6.20779 -0.42342,0.26169 -1.33235,0.11538 -2.01985,-0.32513 -0.6875,-0.4405 -2.6,-1.31253 -4.25,-1.93783 -7.35361,-2.78682 -26.70424,-9.83879 -34,-12.39065 -4.4,-1.53901 -12.725,-4.60775 -18.5,-6.81942 -10.47837,-4.01293 -36.69138,-12.22003 -44.75938,-14.01382 -3.8096,-0.84701 -4.44318,-0.71481 -6,1.25196 -0.95734,1.20944 -2.52812,2.49843 -3.49062,2.86443 -0.9625,0.366 -1.75,1.12957 -1.75,1.69684 0,0.56726 -0.675,1.03138 -1.5,1.03138 -0.825,0 -1.5,0.675 -1.5,1.5 0,0.825 -0.675,1.5 -1.5,1.5 -0.825,0 -1.5,0.45 -1.5,1 0,0.55 -0.83697,1 -1.85993,1 -1.02296,0 -2.70476,1.125 -3.73735,2.5 -1.03258,1.375 -2.37587,2.5 -2.98508,2.5 -0.60922,0 -1.92215,0.9 -2.91764,2 -0.99549,1.1 -2.41523,2 -3.15499,2 -0.73975,0 -1.34501,0.45 -1.34501,1 0,0.55 -0.51592,1 -1.14649,1 -0.63058,0 -3.51934,1.575 -6.41947,3.5 -2.90014,1.925 -5.75064,3.5 -6.33446,3.5 -0.58381,0 -1.36434,-1.2375 -1.7345,-2.75 -0.75991,-3.10504 -2.00463,-4.21242 -4.75984,-4.23469 -1.04212,-0.008 -2.84212,-0.91082 -4,-2.00534 -5.2122,-4.92696 -7.80693,-7.0395 -9.87734,-8.04178 -2.01461,-0.97527 -2.06036,-0.94302 -0.4779,0.33689 2.24421,1.81512 2.22911,3.33637 -0.039,3.92949 -1.49733,0.39156 -1.81987,-0.24156 -1.97837,-3.88337 -0.18876,-4.33727 -0.17824,-4.3512 3.289,-4.3512 2.42521,0 3.47836,-0.45416 3.47836,-1.5 0,-0.825 0.675,-1.5 1.5,-1.5 1.61292,0 1.85321,0.91596 0.89522,3.41247 -0.33264,0.86682 -1.04086,1.30654 -1.57383,0.97714 -0.53297,-0.32939 -0.41538,0.28765 0.2613,1.3712 0.77413,1.23956 1.93583,1.7856 3.13291,1.47256 1.33836,-0.34999 2.0679,0.13473 2.46011,1.63455 0.30665,1.17264 1.30506,2.13208 2.21868,2.13208 0.91362,0 2.45309,0.92494 3.42104,2.05543 1.21969,1.42449 2.4006,1.85209 3.84709,1.39299 1.27036,-0.4032 2.40164,-0.15363 2.89071,0.63771 C 411.12006,432.8123 416,430.70771 416,428.52144 416,427.56524 416.92879,427 418.5,427 c 1.375,0 2.5,-0.45 2.5,-1 0,-0.55 0.47639,-1 1.05864,-1 C 423.76068,425 431,418.79216 431,417.33264 431,416.59969 431.45,416 432,416 c 0.55,0 1,-0.72378 1,-1.60841 0,-1.19572 0.6121,-1.45478 2.38558,-1.00966 1.5776,0.39595 2.84769,0.0375 3.75,-1.05832 C 441.71593,409.18984 448.30335,405 450.65004,405 451.94252,405 453,404.55 453,404 c 0,-0.55 1.3125,-1 2.91667,-1 1.60416,0 3.09037,-0.52113 3.30268,-1.15806 0.45382,-1.36144 9.78065,1.83593 9.78065,3.35293 0,0.50774 -0.51953,0.60208 -1.15451,0.20964 -0.72104,-0.44563 -0.88282,-0.27393 -0.4309,0.45729 0.39798,0.64395 1.16222,0.89974 1.69831,0.56842 0.53609,-0.33132 1.5175,-0.1723 2.1809,0.35337 0.66341,0.52567 2.8937,1.49931 4.9562,2.16364 2.0625,0.66433 3.75,1.62298 3.75,2.13032 0,0.50735 1.30186,0.92245 2.89301,0.92245 1.59116,0 3.13042,0.61868 3.42059,1.37485 0.53528,1.39491 3.75622,2.32163 11.4364,3.29043 2.3375,0.29486 4.25,0.8508 4.25,1.23541 0,0.38462 1.56,0.69931 3.46667,0.69931 4.30224,0 5.22115,0.83844 3.42583,3.12583 -1.24873,1.59099 -1.22169,1.64066 0.26185,0.48111 1.97547,-1.54406 6.84565,-0.59918 6.84565,1.32814 0,0.72505 -0.7875,1.52407 -1.75,1.77559 -1.14793,0.29999 -0.86122,0.49724 0.83333,0.57333 1.42084,0.0638 2.88195,0.41461 3.24692,0.77958 1.6836,1.6836 11.41073,4.32241 13.91975,3.77619 2.11011,-0.45938 2.75,-0.22366 2.75,1.013 0,1.73841 4.27917,3.88591 4.83333,2.42561 0.58425,-1.53958 2.91573,-0.94345 3.40892,0.87162 0.78538,2.89044 12.02489,6.61538 17.87164,5.92292 4.3777,-0.51848 4.88611,-0.37549 4.88611,1.37419 0,1.07409 0.45,1.95289 1,1.95289 1.7955,0 1.05423,2.04524 -1.6494,4.55088 l -2.6494,2.45538 2.1494,1.86417 c 2.33908,2.02867 2.83904,4.12957 0.98273,4.12957 -2.37288,0 0.27785,1.35289 2.9239,1.49232 C 572.18229,458.67279 575,457.03623 575,454.86644 575,453.33656 576.90325,452 579.08179,452 579.5868,452 580,452.675 580,453.5 c 0,0.825 -0.45,1.5 -1,1.5 -0.55,0 -0.98569,0.7875 -0.9682,1.75 0.0293,1.61021 0.14525,1.60019 1.45196,-0.12543 0.81974,-1.08253 2.07463,-1.62427 2.9682,-1.28138 C 583.41629,455.71324 584,455.38347 584,454.46862 584,453.66088 583.325,453 582.5,453 c -0.825,0 -1.5,-0.675 -1.5,-1.5 0,-0.825 0.675,-1.5 1.5,-1.5 0.825,0 1.5,0.675 1.5,1.5 0,0.825 0.675,1.5 1.5,1.5 0.825,0 1.5,0.68912 1.5,1.53138 0,0.84227 0.675,1.79041 1.5,2.10699 2.06135,0.79102 1.92491,4.36163 -0.16667,4.36163 -0.91666,0 -1.36568,0.30098 -0.99781,0.66885 0.36786,0.36787 -0.0944,1.51223 -1.02727,2.54303 -1.60263,1.77089 -1.59445,1.83518 0.14851,1.16634 1.70168,-0.653 1.78938,-0.29138 1.13174,4.66615 -0.39209,2.95571 -1.5375,7.41737 -2.54537,9.91482 -1.00786,2.49745 -2.36672,5.96046 -3.01968,7.69559 -0.65297,1.73513 -2.09293,3.39163 -3.19991,3.68112 -1.67002,0.43671 -1.89795,1.04885 -1.33867,3.59521 C 577.97617,497.16798 577.79465,498 576.81536,498 575.32071,498 572,504.90082 572,508.00686 572,509.10309 571.56412,510 571.03138,510 c -0.53273,0 -0.69216,0.72042 -0.35428,1.60092 0.33788,0.88051 0.0708,1.93684 -0.59346,2.34739 -1.13359,0.70059 -5.28112,11.31118 -8.79852,22.50916 -0.85646,2.7266 -2.17098,5.57125 -2.92116,6.32142 C 557.61378,543.52907 557,545.01071 557,546.07143 557,547.13214 556.55,548 556,548 c -0.55,0 -1,1.0875 -1,2.41667 0,1.32916 -0.5625,2.64364 -1.25,2.92105 -1,0.40351 -1,0.52017 0,0.58333 1.72382,0.10888 1.58587,3.07895 -0.14301,3.07895 -1.69648,0 -3.14529,3.32057 -1.66422,3.81426 1.86287,0.62095 1.12912,3.18574 -0.91139,3.18574 -1.42529,0 -1.79237,0.45927 -1.33006,1.66404 0.38737,1.00947 0.23586,1.41517 -0.38515,1.03136 -0.56304,-0.34798 -1.55637,0.53635 -2.20738,1.96518 -1.29707,2.84675 -0.56257,4.67098 0.93027,2.31046 0.70583,-1.11608 0.93401,-0.80747 0.94563,1.27896 0.01,1.78458 -0.51128,2.75 -1.48469,2.75 -0.825,0 -1.51025,-0.5625 -1.52277,-1.25 -0.0125,-0.6875 -0.65968,0.1 -1.43812,1.75 C 538.22765,588.87788 535,596.4569 535,597.89929 c 0,0.93539 -0.39371,2.12821 -0.87491,2.65071 -0.4812,0.5225 -2.10713,4.07904 -3.61317,7.90343 -1.50604,3.82438 -4.99358,11.86715 -7.75009,17.87282 -2.7565,6.00567 -5.01183,12.08111 -5.01183,13.50098 0,1.52639 -0.97076,3.34518 -2.375,4.44976 -1.30625,1.02749 -2.375,2.93395 -2.375,4.23657 0,1.30262 -0.39188,2.6106 -0.87084,2.90661 -0.47896,0.29602 -1.14793,1.92369 -1.48661,3.61706 -0.33867,1.69336 -1.29679,3.75987 -2.12916,4.59223 C 506.78124,661.36162 506.53168,663 508,663 c 0.55,0 1,0.72748 1,1.61663 0,1.1243 -0.60908,1.45735 -2,1.09362 -1.66121,-0.43441 -2,-0.0307 -2,2.38337 0,1.85693 -0.51764,2.90638 -1.43358,2.90638 -0.8192,0 -1.56918,1.17487 -1.75,2.74145 -0.45077,3.90545 -3.78949,4.40454 -3.8925,0.58187 -0.0747,-2.77315 -0.0984,-2.76113 -1.33403,0.67668 -1.1579,3.22162 -1.61835,3.5238 -5.78907,3.79928 -4.33876,0.28658 -4.55699,0.16985 -5.14096,-2.75 C 485.31847,674.34233 484.41536,673 483.60833,673 c -0.79291,0 -1.61041,-0.50625 -1.81666,-1.125 -0.55788,-1.67363 -5.73482,-1.36042 -7.55215,0.45691 -2.37047,2.37047 -0.11351,9.41063 3.2908,10.26506 1.35072,0.33901 2.24844,0.95199 1.99492,1.36219 -0.25352,0.4102 1.32459,0.26923 3.50691,-0.31326 C 485.21447,683.0634 487,682.00478 487,681.29341 487,680.58203 487.675,680 488.5,680 c 0.825,0 1.5,0.675 1.5,1.5 0,0.825 0.41968,1.5 0.93261,1.5 2.08679,0 2.00108,4.13813 -0.21003,10.14048 -1.28848,3.49774 -2.17017,7.14702 -1.95931,8.10952 0.21086,0.9625 -0.0996,1.75 -0.68995,1.75 C 487.483,703 487,703.9 487,705 c 0,1.1 -0.45,2 -1,2 -0.55,0 -1,0.74795 -1,1.66211 0,2.68797 -3.35363,12.72279 -4.73204,14.15932 -0.69738,0.72678 -1.26796,1.96428 -1.26796,2.75 0,0.78571 -0.72378,1.42857 -1.60841,1.42857 -1.23206,0 -1.45598,0.6073 -0.957,2.59541 0.49413,1.96877 0.0978,3.08777 -1.64159,4.63464 -1.26115,1.12157 -1.62202,1.82997 -0.80193,1.57423 1.6042,-0.50027 4.00893,1.37382 4.00893,3.12429 0,0.58929 -0.675,1.07143 -1.5,1.07143 -0.825,0 -1.5,-0.75985 -1.5,-1.68856 0,-1.43202 -0.30386,-1.36241 -2,0.45819 -1.1,1.18071 -2,2.61556 -2,3.18856 0,1.68614 -5.00466,1.19325 -5.6771,-0.55911 z m 5.48397,-4.92554 c -0.30789,-0.30789 -0.86705,0.24711 -1.24258,1.23333 -0.54268,1.4252 -0.42782,1.54006 0.5598,0.5598 0.68342,-0.67834 0.99067,-1.48524 0.68278,-1.79313 z m 10,-24 c -0.30789,-0.30789 -0.86705,0.24711 -1.24258,1.23333 -0.54268,1.4252 -0.42782,1.54006 0.5598,0.5598 0.68342,-0.67834 0.99067,-1.48524 0.68278,-1.79313 z m -4.46179,-28.01667 c -0.32569,-0.84872 -0.80663,-1.32866 -1.06875,-1.06653 -0.26213,0.26213 -0.17998,0.95654 0.18255,1.54313 0.98605,1.59546 1.56238,1.28551 0.8862,-0.4766 z m -56,-12 c -0.32569,-0.84872 -0.80663,-1.32866 -1.06875,-1.06653 -0.26213,0.26213 -0.17998,0.95654 0.18255,1.54313 0.98605,1.59546 1.56238,1.28551 0.8862,-0.4766 z m 80.3172,-1.70687 c -0.27741,-0.6875 -0.50439,-0.125 -0.50439,1.25 0,1.375 0.22698,1.9375 0.50439,1.25 0.27741,-0.6875 0.27741,-1.8125 0,-2.5 z m -4.74561,-1.03297 c -0.22917,-0.15563 -1.31667,-0.94313 -2.41667,-1.75 -1.85001,-1.35701 -1.89707,-1.33579 -0.62756,0.28297 0.75485,0.9625 1.84235,1.75 2.41667,1.75 0.57432,0 0.85672,-0.12734 0.62756,-0.28297 z M 396,635.44098 c 0,-0.85746 -0.45734,-1.27636 -1.01631,-0.9309 -0.55897,0.34546 -0.75742,1.04702 -0.44098,1.55902 0.85723,1.38704 1.45729,1.12841 1.45729,-0.62812 z M 360.5,620 c 0.33992,-0.55 0.14148,-1 -0.44098,-1 -0.58246,0 -1.05902,0.45 -1.05902,1 0,0.55 0.19844,1 0.44098,1 0.24254,0 0.7191,-0.45 1.05902,-1 z m -6.5,-5 c 0,-0.55 -0.47656,-1 -1.05902,-1 -0.58246,0 -0.7809,0.45 -0.44098,1 0.33992,0.55 0.81648,1 1.05902,1 0.24254,0 0.44098,-0.45 0.44098,-1 z m 74,-19 c 0,-0.55 -0.675,-1 -1.5,-1 -0.825,0 -1.5,0.45 -1.5,1 0,0.55 0.675,1 1.5,1 0.825,0 1.5,-0.45 1.5,-1 z m -54.5,-3 c 0.33992,-0.55 0.14148,-1 -0.44098,-1 -0.58246,0 -1.05902,0.45 -1.05902,1 0,0.55 0.19844,1 0.44098,1 0.24254,0 0.7191,-0.45 1.05902,-1 z m 17.75,-12.66228 c -0.6875,-0.27741 -1.8125,-0.27741 -2.5,0 -0.6875,0.27741 -0.125,0.50439 1.25,0.50439 1.375,0 1.9375,-0.22698 1.25,-0.50439 z M 383,578 c 0,-0.55 -0.45,-1 -1,-1 -0.55,0 -1,0.45 -1,1 0,0.55 0.45,1 1,1 0.55,0 1,-0.45 1,-1 z m -2.18195,-2.5 c 0.62649,-1.375 0.97547,-2.5 0.77552,-2.5 -0.19995,0 -1.10068,1.125 -2.00161,2.5 -0.90094,1.375 -1.24992,2.5 -0.77553,2.5 0.4744,0 1.37512,-1.125 2.00162,-2.5 z M 581.6306,483.47975 c -0.66755,-1.73962 -2.64027,-1.11409 -2.61529,0.82927 0.009,0.71561 0.40223,0.59227 0.98469,-0.30902 0.81102,-1.25497 0.97188,-1.18691 0.98469,0.41667 0.008,1.05416 0.2959,1.63607 0.63885,1.29312 0.34294,-0.34294 0.34612,-1.34646 0.007,-2.23004 z M 583,476.88197 c 0,-0.55 -0.45,-0.72189 -1,-0.38197 -0.55,0.33992 -1,1.06803 -1,1.61803 0,0.55 0.45,0.72189 1,0.38197 0.55,-0.33992 1,-1.06803 1,-1.61803 z m 0.72917,-10.48614 c -0.33229,-0.33229 -1.1948,-0.36781 -1.91667,-0.0789 -0.79773,0.31922 -0.56078,0.55618 0.60417,0.60416 1.05416,0.0434 1.64479,-0.19293 1.3125,-0.52522 z M 562,454.89301 C 562,454.40186 561.325,454 560.5,454 c -0.825,0 -1.5,0.66088 -1.5,1.46862 0,0.89459 0.58629,1.24363 1.5,0.89301 0.825,-0.31659 1.5,-0.97746 1.5,-1.46862 z m -55.61414,-34.32987 c -0.30326,-0.79027 -1.22687,-1.17765 -2.05246,-0.86083 -1.22113,0.46858 -1.25232,0.73371 -0.16725,1.42154 1.99392,1.26394 2.83806,1.05071 2.21971,-0.56071 z m -5.65669,-2.16731 c -0.33229,-0.33229 -1.1948,-0.36781 -1.91667,-0.0789 -0.79773,0.31922 -0.56078,0.55618 0.60417,0.60416 1.05416,0.0434 1.64479,-0.19293 1.3125,-0.52522 z M 443.12756,412.25 c 1.24387,-1.58606 1.2085,-1.62143 -0.37756,-0.37756 -1.66575,1.30637 -2.19548,2.12756 -1.37244,2.12756 0.20765,0 0.99515,-0.7875 1.75,-1.75 z m 28.32973,-2.1809 c 0.31644,-0.512 0.19299,-1.1672 -0.27431,-1.45601 -0.46731,-0.28881 -0.84965,0.13009 -0.84965,0.9309 0,1.68617 0.31534,1.83349 1.12396,0.52511 z m -6.94783,-4.0538 c -0.33472,-0.54158 -1.67883,-0.89612 -2.98693,-0.78786 -3.09684,0.25631 -2.15974,1.77256 1.0955,1.77256 1.38613,0 2.22885,-0.43873 1.89143,-0.9847 z M 512,705.5 c 0,-0.825 0.675,-1.5 1.5,-1.5 0.825,0 1.5,0.675 1.5,1.5 0,0.825 -0.675,1.5 -1.5,1.5 -0.825,0 -1.5,-0.675 -1.5,-1.5 z M 376,704.58333 C 376,703.7125 376.7125,703 377.58333,703 c 1.76593,0 1.45839,2.15276 -0.39583,2.77083 C 376.53437,705.98854 376,705.45417 376,704.58333 Z M 260,658.5 c 0,-0.825 0.675,-1.5 1.5,-1.5 0.825,0 1.5,0.675 1.5,1.5 0,0.825 -0.675,1.5 -1.5,1.5 -0.825,0 -1.5,-0.675 -1.5,-1.5 z m 268,-25 c 0,-0.825 0.675,-1.5 1.5,-1.5 0.825,0 1.5,0.675 1.5,1.5 0,0.825 -0.675,1.5 -1.5,1.5 -0.825,0 -1.5,-0.675 -1.5,-1.5 z m -41.77749,-6.0567 c -2.99925,-2.10076 -2.863,-4.4433 0.25844,-4.4433 1.80132,0 2.65001,-0.67361 3.09811,-2.45898 0.33944,-1.35244 1.21909,-2.95854 1.95477,-3.5691 0.73569,-0.61056 1.62729,-2.42902 1.98135,-4.04102 0.35405,-1.61199 0.94813,-2.9309 1.32016,-2.9309 0.83707,0 2.47279,-3.80396 4.73004,-11 1.70952,-5.44988 4.68314,-12.87729 6.50583,-16.25 0.70861,-1.31122 0.56752,-1.75 -0.56274,-1.75 C 504.67881,581 504,580.58575 504,580.07946 c 0,-0.5063 -1.4625,-1.22877 -3.25,-1.60548 -5.57758,-1.17547 -9.75,-3.56677 -9.75,-5.58792 0,-2.5656 4.3497,-2.5019 9.82588,0.1439 9.31531,4.50067 8.53859,4.75148 12.5652,-4.05732 1.98491,-4.34227 3.62299,-8.25 3.64019,-8.68384 0.0172,-0.43384 1.13809,-3.0388 2.49086,-5.7888 1.35277,-2.75 2.47801,-5.675 2.50053,-6.5 0.0225,-0.825 0.70164,-2.37351 1.50914,-3.44113 0.80751,-1.06762 1.4682,-3.16762 1.4682,-4.66667 0,-1.49904 0.5625,-2.93178 1.25,-3.18387 1,-0.36666 1,-0.72333 0,-1.78333 -1.76879,-1.87491 -1.63391,-7.925 0.17668,-7.925 0.78467,0 1.60435,0.7875 1.82152,1.75 0.22275,0.98727 1.32877,-1.08299 2.53763,-4.75 1.17853,-3.575 4.59132,-13.025 7.58397,-21 l 5.44118,-14.5 -4.15549,-2.03046 C 537.36997,485.35278 531.225,482.80183 526,480.80075 520.775,478.79968 513.42055,475.77588 509.65678,474.08122 505.89301,472.38655 502.66541,471 502.48433,471 c -0.18107,0 -0.87483,1.6875 -1.54168,3.75 -0.66685,2.0625 -2.67526,7.35 -4.46312,11.75 -5.38605,13.25525 -5.74989,11.82534 3.98172,15.6484 6.1762,2.42631 8.53252,3.83473 8.53514,5.1016 0.002,0.9625 -0.55889,1.74345 -1.24639,1.73545 -1.65122,-0.0192 -9.9584,-2.92591 -11.24212,-3.93362 -0.55433,-0.43515 -2.69538,-1.33473 -4.75788,-1.99906 -2.42088,-0.77976 -3.75,-1.82043 -3.75,-2.93615 0,-2.21712 3.98852,-14.31746 5.13107,-15.56662 0.47791,-0.5225 0.86893,-1.76611 0.86893,-2.76357 0,-0.99746 0.44746,-2.59496 0.99436,-3.55 0.5469,-0.95504 1.92923,-4.32393 3.07185,-7.48643 2.28259,-6.31768 3.3803,-6.83546 9.14986,-4.31593 1.80616,0.78873 4.74643,2.02358 6.53393,2.74411 1.7875,0.72052 3.25,1.65019 3.25,2.06593 0,0.41574 0.59078,0.75589 1.31285,0.75589 0.72206,0 3.64486,1.125 6.49509,2.5 2.85024,1.375 6.27196,2.5 7.60382,2.5 1.33187,0 2.57157,0.39226 2.75491,0.8717 0.63599,1.6632 8.79356,5.00166 9.48558,3.88195 0.38666,-0.62562 0.18195,-0.76921 -0.49774,-0.34914 C 543.51953,481.79695 543,481.64148 543,481.05902 543,480.47656 543.675,480 544.5,480 c 0.83333,0 1.5,0.88889 1.5,2 0,1.12933 0.66667,2 1.53138,2 2.53328,0 2.72773,2.56031 0.53858,7.09133 -1.13848,2.35638 -2.06996,5.09981 -2.06996,6.0965 0,0.99669 -0.45,1.81217 -1,1.81217 -0.55,0 -1,0.75754 -1,1.68342 0,1.52661 -2.9127,10.83565 -4.94884,15.81658 -3.95997,9.68712 -12.96558,33.04508 -15.03636,39 -0.95629,2.75 -2.70083,6.79334 -3.87676,8.98519 -1.17592,2.19186 -2.13804,5.45436 -2.13804,7.25 0,2.25359 -0.4705,3.26481 -1.51905,3.26481 -1.12098,0 -1.35463,0.65514 -0.89159,2.5 0.5006,1.99455 0.25173,2.50043 -1.23095,2.50212 -1.43875,0.002 -2.7926,2.42917 -5.99533,10.75 -2.27531,5.91133 -4.68617,12.77288 -5.35747,15.24788 -1.9182,7.0722 -4.19752,12 -5.5505,12 -0.68262,0 -1.50015,0.675 -1.81674,1.5 -0.31658,0.825 -0.13972,1.5 0.39301,1.5 0.53274,0 0.96862,0.675 0.96862,1.5 0,0.825 -0.62325,1.5 -1.38499,1.5 -0.76174,0 -2.12212,1.125 -3.02305,2.5 -1.89926,2.89863 -3.28485,3.10383 -6.36945,0.9433 z M 500.91617,609.5 c 0,-0.55 -0.86228,0.575 -1.91617,2.5 -1.05389,1.925 -1.91617,3.95 -1.91617,4.5 0,0.55 0.86228,-0.575 1.91617,-2.5 1.05389,-1.925 1.91617,-3.95 1.91617,-4.5 z M 519.5,475 c -0.33992,-0.55 -1.15398,-0.99311 -1.80902,-0.98469 -0.71561,0.009 -0.59227,0.40223 0.30902,0.98469 1.92112,1.24153 2.2673,1.24153 1.5,0 z m -8.77083,-4.60417 c -0.33229,-0.33229 -1.1948,-0.36781 -1.91667,-0.0789 -0.79773,0.31922 -0.56078,0.55618 0.60417,0.60416 1.05416,0.0434 1.64479,-0.19293 1.3125,-0.52522 z M 290,613.5 c 0,-0.825 0.675,-1.5 1.5,-1.5 0.825,0 1.5,0.675 1.5,1.5 0,0.825 -0.675,1.5 -1.5,1.5 -0.825,0 -1.5,-0.675 -1.5,-1.5 z m 245,-1 c 0,-0.825 0.675,-1.5 1.5,-1.5 0.825,0 1.5,0.675 1.5,1.5 0,0.825 -0.675,1.5 -1.5,1.5 -0.825,0 -1.5,-0.675 -1.5,-1.5 z m -236,-28 c 0,-0.825 0.675,-1.5 1.5,-1.5 0.825,0 1.5,0.675 1.5,1.5 0,0.825 -0.675,1.5 -1.5,1.5 -0.825,0 -1.5,-0.675 -1.5,-1.5 z m 171.36163,-4 c -0.31659,-0.825 -0.30704,-2.19987 0.0212,-3.05528 0.68656,-1.78915 -2.03642,-3.10814 -14.70103,-7.12101 -4.49999,-1.42585 -8.60931,-2.98199 -9.13181,-3.45809 C 446.0275,566.38953 444.55889,566 443.28643,566 c -1.27246,0 -3.31996,-0.5625 -4.55,-1.25 -1.23004,-0.6875 -2.31235,-1.25092 -2.40515,-1.25205 -0.0928,-10e-4 -0.48909,-1.27854 -0.88066,-2.83869 -0.66498,-2.64946 -0.52975,-2.81429 2.04943,-2.49795 2.61582,0.32084 2.91678,-0.083 5.70916,-7.66131 1.62127,-4.4 3.31115,-8.9 3.7553,-10 0.44414,-1.1 1.39009,-4.025 2.10212,-6.5 0.71202,-2.475 2.07977,-6.3 3.03943,-8.5 0.95966,-2.2 2.92529,-7.375 4.36807,-11.5 2.57027,-7.34859 7.24874,-19.70517 10.35532,-27.35002 1.4445,-3.55472 1.43434,-3.92285 -0.13248,-4.79969 -2.82072,-1.57855 -2.1075,-4.81818 1.20666,-5.48102 1.88248,-0.37649 3.073,-1.33483 3.38521,-2.725 0.96449,-4.29451 6.70594,-22.18795 7.62743,-23.77116 0.5208,-0.89479 1.25371,-3.26226 1.62868,-5.26105 0.37498,-1.99878 1.08076,-3.88074 1.56841,-4.18212 1.48817,-0.91974 1.00863,-6.4459 -0.61336,-7.06831 -0.825,-0.31659 -1.5,-1.22285 -1.5,-2.01393 0,-1.65196 5.13771,-1.01983 10.75,1.32264 4.11534,1.71768 4.33971,4.32966 0.37193,4.32966 -2.59497,0 -3.08349,0.56561 -4.96626,5.75 -1.1485,3.1625 -3.02462,8.9 -4.16914,12.75 -1.96992,6.62647 -5.12114,15.59554 -7.02687,20 -0.47595,1.1 -1.30708,3.575 -1.84696,5.5 -0.53988,1.925 -3.25608,9.35 -6.036,16.5 -2.77992,7.15 -5.06219,13.45 -5.07171,14 -0.01,0.55 -0.70593,2.32053 -1.54757,3.9345 -2.69988,5.17744 -3.50035,10.66612 -1.89071,12.9642 2.11038,3.01299 1.75847,4.42922 -1.18897,4.78488 -2.38149,0.28737 -2.98844,1.37234 -6.61023,11.81642 -2.19338,6.325 -4.05086,12.34381 -4.12773,13.37514 -0.10301,1.38185 1.3071,2.47374 5.36022,4.15059 3.025,1.2515 9.775,4.03957 15,6.19572 9.30632,3.84033 9.49693,3.98564 9.34955,7.12699 -0.24066,5.12949 -4.52684,8.4591 -5.98792,4.65156 z M 455,529 c 0,-0.55 -0.19844,-1 -0.44098,-1 -0.24254,0 -0.7191,0.45 -1.05902,1 -0.33992,0.55 -0.14148,1 0.44098,1 0.58246,0 1.05902,-0.45 1.05902,-1 z m 89,50.5 c 0,-0.825 0.675,-1.5 1.5,-1.5 0.825,0 1.5,0.675 1.5,1.5 0,0.825 -0.675,1.5 -1.5,1.5 -0.825,0 -1.5,-0.675 -1.5,-1.5 z m -207,-14 c 0,-0.825 0.675,-1.5 1.5,-1.5 0.825,0 1.5,0.675 1.5,1.5 0,0.825 -0.675,1.5 -1.5,1.5 -0.825,0 -1.5,-0.675 -1.5,-1.5 z m -25,-2 c 0,-0.825 0.675,-1.5 1.5,-1.5 0.825,0 1.5,0.675 1.5,1.5 0,0.825 -0.675,1.5 -1.5,1.5 -0.825,0 -1.5,-0.675 -1.5,-1.5 z m 18,-4 c 0,-0.825 0.675,-1.5 1.5,-1.5 0.825,0 1.5,0.675 1.5,1.5 0,0.825 -0.675,1.5 -1.5,1.5 -0.825,0 -1.5,-0.675 -1.5,-1.5 z m -8,-5.88337 c 0,-0.76085 0.9,-1.61872 2,-1.90638 1.48349,-0.38794 2,-0.0307 2,1.38337 0,1.23971 -0.69941,1.90638 -2,1.90638 -1.1,0 -2,-0.62252 -2,-1.38337 z M 263,552.5 c 0,-0.825 0.675,-1.5 1.5,-1.5 0.825,0 1.5,0.675 1.5,1.5 0,0.825 -0.675,1.5 -1.5,1.5 -0.825,0 -1.5,-0.675 -1.5,-1.5 z m 34,-12.41896 C 297,535.61328 302.26764,527 305,527 c 1.55176,0 1.18897,2.44544 -0.98736,6.6555 -1.09304,2.11447 -2.4319,5.082 -2.97524,6.5945 -1.34556,3.74561 -4.0374,3.63296 -4.0374,-0.16896 z m 80.41523,-26.44134 c -0.31536,-0.82184 -0.42531,-2.53947 -0.24431,-3.81697 0.26083,-1.84101 0.95126,-2.32273 3.32908,-2.32273 2.7619,0 3,0.27778 3,3.5 0,3.07658 -0.33337,3.53835 -2.75569,3.81697 -1.7487,0.20114 -2.96521,-0.22906 -3.32908,-1.17727 z M 589,475.5 c 0,-0.825 0.675,-1.5 1.5,-1.5 0.825,0 1.5,0.675 1.5,1.5 0,0.825 -0.675,1.5 -1.5,1.5 -0.825,0 -1.5,-0.675 -1.5,-1.5 z m -3,-27 c 0,-0.825 0.675,-1.5 1.5,-1.5 0.825,0 1.5,0.675 1.5,1.5 0,0.825 -0.675,1.5 -1.5,1.5 -0.825,0 -1.5,-0.675 -1.5,-1.5 z m 2,-7 c 0,-0.825 0.675,-1.5 1.5,-1.5 0.825,0 1.5,0.675 1.5,1.5 0,0.825 -0.675,1.5 -1.5,1.5 -0.825,0 -1.5,-0.675 -1.5,-1.5 z m -172,-20 c 0,-0.83333 0.88889,-1.5 2,-1.5 1.11111,0 2,0.66667 2,1.5 0,0.83333 -0.88889,1.5 -2,1.5 -1.11111,0 -2,-0.66667 -2,-1.5 z"
     id="path3777"
     inkscape:connector-curvature="0" />
</svg>
